<svg width="151" height="151" viewBox="0 0 151 151" fill="none" xmlns="http://www.w3.org/2000/svg">
<path d="M137.482 72.6468C133.482 65.7093 111.482 30.8968 74.1074 32.0218C39.5449 32.8968 19.5449 63.2718 14.1074 72.6468C13.5588 73.5969 13.27 74.6747 13.27 75.7718C13.27 76.8689 13.5588 77.9467 14.1074 78.8968C18.0449 85.7093 39.1074 119.522 75.9199 119.522H77.4824C112.045 118.647 132.107 88.2718 137.482 78.8968C138.031 77.9467 138.32 76.8689 138.32 75.7718C138.32 74.6747 138.031 73.5969 137.482 72.6468ZM77.1699 107.022C50.2324 107.647 32.6699 84.5843 27.1699 75.7718C33.4199 65.7093 49.7324 45.1468 74.7324 44.5218C101.545 43.8343 119.17 66.9593 124.732 75.7718C118.295 85.8343 102.17 106.397 77.1699 107.022Z" fill="#B3B3B3"/>
<path d="M75.8052 53.8989C71.4787 53.8989 67.2494 55.1819 63.6521 57.5855C60.0548 59.9892 57.251 63.4056 55.5953 67.4027C53.9397 71.3999 53.5065 75.7982 54.3505 80.0415C55.1946 84.2849 57.278 88.1826 60.3372 91.2419C63.3965 94.3012 67.2943 96.3846 71.5376 97.2286C75.7809 98.0727 80.1793 97.6395 84.1764 95.9838C88.1735 94.3281 91.5899 91.5244 93.9936 87.927C96.3972 84.3297 97.6802 80.1004 97.6802 75.7739C97.6802 69.9723 95.3755 64.4083 91.2731 60.306C87.1708 56.2036 81.6068 53.8989 75.8052 53.8989ZM75.8052 85.1489C73.951 85.1489 72.1384 84.5991 70.5967 83.569C69.055 82.5388 67.8534 81.0746 67.1438 79.3616C66.4342 77.6485 66.2486 75.7635 66.6103 73.945C66.9721 72.1264 67.8649 70.4559 69.1761 69.1448C70.4872 67.8337 72.1576 66.9408 73.9762 66.5791C75.7948 66.2173 77.6798 66.403 79.3928 67.1126C81.1059 67.8221 82.5701 69.0237 83.6002 70.5655C84.6304 72.1072 85.1802 73.9197 85.1802 75.7739C85.1802 78.2603 84.1925 80.6449 82.4343 82.4031C80.6762 84.1612 78.2916 85.1489 75.8052 85.1489Z" fill="#B3B3B3"/>
</svg>
