<svg width="300" height="300" viewBox="0 0 300 300" fill="none" xmlns="http://www.w3.org/2000/svg">
<g clip-path="url(#clip0_685_234)">
<path d="M149.875 25C80.875 25 25 81 25 150C25 219 80.875 275 149.875 275C219 275 275 219 275 150C275 81 219 25 149.875 25ZM106.25 100C116.625 100 125 108.375 125 118.75C125 129.125 116.625 137.5 106.25 137.5C95.875 137.5 87.5 129.125 87.5 118.75C87.5 108.375 95.875 100 106.25 100ZM150 225C121.5 225 97.25 204.25 87.5 175H212.5C202.75 204.25 178.5 225 150 225ZM193.75 137.5C183.375 137.5 175 129.125 175 118.75C175 108.375 183.375 100 193.75 100C204.125 100 212.5 108.375 212.5 118.75C212.5 129.125 204.125 137.5 193.75 137.5Z" fill="#434343"/>
</g>
<defs>
<clipPath id="clip0_685_234">
<rect width="300" height="300" fill="white"/>
</clipPath>
</defs>
</svg>
