<svg width="304" height="304" viewBox="0 0 304 304" fill="none" xmlns="http://www.w3.org/2000/svg">
<path d="M187.82 59.3391C201.848 62.0708 214.741 68.9184 224.847 79.0055C234.953 89.0926 241.814 101.96 244.551 115.962M187.82 2C216.965 5.23158 244.143 18.2581 264.891 38.9408C285.64 59.6235 298.726 86.733 302 115.818M287.638 230.21V273.214C287.654 277.206 286.835 281.158 285.232 284.816C283.63 288.474 281.28 291.757 278.332 294.456C275.385 297.155 271.905 299.21 268.116 300.489C264.327 301.768 260.312 302.243 256.328 301.884C212.133 297.091 169.681 282.018 132.382 257.876C97.6804 235.867 68.2595 206.502 46.2086 171.867C21.9361 134.471 6.83088 91.8933 2.11657 47.5846C1.75767 43.6206 2.22968 39.6254 3.50254 35.8534C4.7754 32.0814 6.82122 28.6152 9.50976 25.6756C12.1983 22.736 15.4706 20.3874 19.1185 18.7792C22.7663 17.171 26.7096 16.3385 30.6974 16.3348H73.7841C80.7542 16.2663 87.5114 18.7298 92.7963 23.2661C98.0812 27.8024 101.533 34.102 102.509 40.9906C104.327 54.7529 107.7 68.2658 112.562 81.2713C114.494 86.4021 114.913 91.9782 113.767 97.3389C112.622 102.7 109.961 107.62 106.099 111.518L87.8591 129.723C108.305 165.611 138.076 195.325 174.033 215.732L192.273 197.526C196.177 193.672 201.108 191.016 206.479 189.873C211.849 188.73 217.436 189.147 222.577 191.076C235.607 195.929 249.146 199.295 262.935 201.11C269.911 202.092 276.283 205.6 280.838 210.965C285.392 216.331 287.813 223.18 287.638 230.21Z" stroke="#0C2943" stroke-width="3.41667" stroke-linecap="round" stroke-linejoin="round"/>
</svg>
